Coordinates
version=1
nRows=5
nColumns=40
inDegrees=yes

Units are S.I. units (second, meters, Newtons, ...)
If the header above contains a line with 'inDegrees', this indicates whether rotational values are in degrees (yes) or radians (no).

endheader
time	pelvis_tilt	pelvis_list	pelvis_rotation	pelvis_tx	pelvis_ty	pelvis_tz	hip_flexion_r	hip_adduction_r	hip_rotation_r	knee_angle_r	knee_angle_r_beta	ankle_angle_r	subtalar_angle_r	mtp_angle_r	hip_flexion_l	hip_adduction_l	hip_rotation_l	knee_angle_l	knee_angle_l_beta	ankle_angle_l	subtalar_angle_l	mtp_angle_l	lumbar_extension	lumbar_bending	lumbar_rotation	arm_flex_r	arm_add_r	arm_rot_r	elbow_flex_r	pro_sup_r	wrist_flex_r	wrist_dev_r	arm_flex_l	arm_add_l	arm_rot_l	elbow_flex_l	pro_sup_l	wrist_flex_l	wrist_dev_l
      0.18000000	     -2.50429428	     -6.63586743	     -0.53805128	     -0.92911588	      0.98200487	      0.27193191	     20.95544540	      7.71310427	     -8.69428551	     17.74537541	      0.30971523	     -7.38012795	      0.00000000	      0.00000000	     -0.65669075	    -11.87838952	    -12.41226676	     48.24574309	      0.84204707	    -18.50136573	      0.00000000	      0.00000000	     -9.93943650	      8.25679616	     -1.76215525	    -15.50680756	      0.63814418	    -19.37926000	     53.12632184	     88.60769251	     26.78735631	     29.82178732	      1.08783856	     -4.95456297	     -5.54704247	     71.80190696	     89.29720337	     27.89896033	     30.41629310
      0.19000000	     -2.22480628	     -6.80465868	     -0.48977096	     -0.91669039	      0.98346739	      0.27334108	     19.96163957	      8.04156056	     -8.35352049	     17.94838758	      0.31325846	     -6.42964168	      0.00000000	      0.00000000	      0.51795550	    -12.57231658	    -12.08532290	     50.72392016	      0.88529942	    -18.89379853	      0.00000000	      0.00000000	    -10.33557994	      8.32896471	     -1.41582657	    -15.37973285	      0.61740310	    -19.25922956	     53.16476138	     88.58358614	     26.80319695	     29.76841734	      0.71511060	     -4.95522107	     -5.74021740	     71.31694130	     89.30161355	     27.86387540	     30.49233177
      0.20000000	     -2.22999244	     -7.15234932	     -0.25505822	     -0.90436098	      0.98442449	      0.27434396	     19.24097769	      8.45908351	     -8.50732111	     18.06913490	      0.31536590	     -5.40761030	      0.00000000	      0.00000000	      2.19016089	    -13.43118506	    -11.48491998	     53.28442234	      0.92998861	    -18.46928500	      0.00000000	      0.00000000	    -10.33997121	      8.65989322	     -1.20863127	    -15.35075329	      0.57828282	    -19.24546531	     53.37027225	     88.56058385	     26.78335299	     29.67146640	      0.33715214	     -4.94578065	     -5.76225754	     70.67357638	     89.30386866	     27.88236551	     30.66172296
      0.21000000	     -1.96365050	     -6.99158485	     -0.32271004	     -0.89225428	      0.98625231	      0.27573632	     18.14019366	      8.45625591	     -8.38890400	     18.01026119	      0.31433836	     -4.91147620	      0.00000000	      0.00000000	      3.40072494	    -13.67344888	    -11.28332472	     55.27222267	      0.96468227	    -18.25347588	      0.00000000	      0.00000000	    -10.68019903	      8.33716353	     -0.81723329	    -15.06486176	      0.60177317	    -19.14385691	     53.22472271	     88.56777042	     26.78577507	     29.65493531	      0.00354002	     -5.01298858	     -5.94994023	     69.95378624	     89.30450491	     27.85337670	     30.72636297
      0.22000000	     -2.61252089	     -7.51422795	      0.38757220	     -0.88046284	      0.98616518	      0.27589800	     18.11827471	      8.87346557	     -9.15548248	     18.02122278	      0.31452967	     -3.94008247	      0.00000000	      0.00000000	      6.20981354	    -14.48312504	     -9.75919653	     57.78963269	      1.00861936	    -16.54442889	      0.00000000	      0.00000000	     -9.84649018	      8.93527271	     -0.86560144	    -15.23225396	      0.57065270	    -19.32075528	     53.53192341	     88.54983812	     26.65208455	     29.47140230	     -0.24005166	     -5.00717926	     -5.65602686	     69.00866345	     89.30385420	     28.03353369	     30.96439649
